<svg width="48" height="44" viewBox="0 0 48 44" fill="none" xmlns="http://www.w3.org/2000/svg">
<g opacity="0.75">
<path d="M47.8938 7.30719C47.8789 7.2677 47.8631 7.23348 47.8456 7.19574C47.8245 7.15099 47.8113 7.10448 47.7868 7.06148C47.728 6.9632 47.6543 6.8772 47.577 6.79647C47.57 6.78945 47.5647 6.78067 47.5586 6.77453C47.4349 6.6508 47.2892 6.56041 47.1339 6.48845C47.1014 6.4709 47.0672 6.4595 47.033 6.44633C46.8671 6.38403 46.6916 6.33927 46.5091 6.33927H32.5783V1.49092C32.5783 0.6678 31.9096 0 31.0865 0H16.9144C16.0904 0 15.4217 0.6678 15.4217 1.49092V6.33927H1.4918C1.31454 6.33927 1.1443 6.3814 0.983711 6.44019C0.9451 6.45423 0.908243 6.46827 0.871387 6.4867C0.714309 6.55866 0.568639 6.64992 0.444908 6.7719C0.442275 6.77277 0.439642 6.77453 0.437009 6.77629C0.429989 6.78331 0.426478 6.79471 0.419458 6.80173C0.343991 6.88159 0.272034 6.96583 0.214117 7.06148C0.186913 7.10711 0.172874 7.15626 0.151813 7.20276C0.134262 7.2405 0.117588 7.27648 0.10267 7.31597C0.0429978 7.47743 0.00526492 7.64504 0.00350986 7.81528C0.00350986 7.82055 0 7.82493 0 7.8302V42.16C0 42.9832 0.668677 43.651 1.4918 43.651H42.2803C45.4341 43.651 48 41.0851 48 37.9312V7.83195C48 7.82669 47.9965 7.82142 47.9965 7.81616C47.9947 7.64328 47.9561 7.47217 47.8938 7.30719ZM18.4053 2.98185H29.5938V6.3384H18.4053V2.98185ZM44.0283 9.32375L38.1515 20.4105H29.0436H18.9573H9.84764L3.97082 9.32288L44.0283 9.32375ZM27.2236 23.3941C26.6576 24.6094 25.4255 25.4545 23.9996 25.4545C22.5736 25.4545 21.3433 24.6094 20.7773 23.3941H27.2236ZM45.0164 37.9321C45.0164 39.4406 43.7896 40.6674 42.2811 40.6674H2.9836V13.8307L7.63188 22.6008C7.8925 23.0896 8.39884 23.3941 8.9508 23.3941H17.6541C18.3325 26.2776 20.9124 28.4372 23.9996 28.4372C27.0885 28.4372 29.6684 26.2776 30.3467 23.3941H39.0492C39.602 23.3941 40.1084 23.0887 40.3681 22.6008L45.0164 13.8307V37.9321Z" fill="#14C284"/>
</g>
</svg>
