<svg width="48" height="49" viewBox="0 0 48 49" fill="none" xmlns="http://www.w3.org/2000/svg">
<g opacity="0.75">
<path d="M24 0C10.7668 0 0 10.7685 0 24.0009C0 37.2349 10.7659 48.0017 24 48.0017C37.2341 48.0017 48 37.2349 48 24.0009C48 10.7685 37.2341 0 24 0ZM24 45.0509C12.3946 45.0509 2.95258 35.6098 2.95258 24.0017C2.95258 12.3954 12.3946 2.95258 24 2.95258C35.6063 2.95258 45.0483 12.3954 45.0483 24.0017C45.0483 35.6098 35.6063 45.0509 24 45.0509Z" fill="#14C284"/>
<path d="M25.5499 6.68042H22.5981V25.4785H32.061V22.5259H25.5499V6.68042Z" fill="#14C284"/>
<path d="M25.5499 37.4546H22.5981V41.2953H25.5499V37.4546Z" fill="#14C284"/>
<path d="M10.4472 22.526H6.66211V25.4777H10.4472V22.526Z" fill="#14C284"/>
<path d="M41.3393 22.526H37.5542V25.4777H41.3393V22.526Z" fill="#14C284"/>
<path d="M15.0087 13.7239L12.2161 11.1686L10.2222 13.3476L13.0149 15.903L15.0087 13.7239Z" fill="#14C284"/>
<path d="M33.0265 34.1903L35.8174 36.7422L37.8098 34.5632L35.0189 32.0113L33.0265 34.1903Z" fill="#14C284"/>
<path d="M11.228 35.7572L13.4048 37.7493L15.9607 34.9563L13.7839 32.9642L11.228 35.7572Z" fill="#14C284"/>
<path d="M36.8023 12.1531L34.6255 10.161L32.0701 12.9533L34.247 14.9454L36.8023 12.1531Z" fill="#14C284"/>
</g>
</svg>
