<svg width="20" height="30" viewBox="0 0 20 30" fill="none" xmlns="http://www.w3.org/2000/svg">
<path d="M20 10V19.3713C20 22.0235 18.9464 24.567 17.0711 26.4424C15.1957 28.3177 12.6522 29.3713 10 29.3713C7.34784 29.3713 4.8043 28.3177 2.92893 26.4424C1.05357 24.567 0 22.0235 0 19.3713V10C0 7.34783 1.05357 4.8043 2.92893 2.92893C4.8043 1.05357 7.34784 0 10 0C12.6522 0 15.1957 1.05357 17.0711 2.92893C18.9464 4.8043 20 7.34783 20 10ZM17.3805 10C17.3805 8.04257 16.6029 6.16532 15.2188 4.78121C13.8347 3.3971 11.9574 2.61952 10 2.61952C8.04257 2.61952 6.16532 3.3971 4.78121 4.78121C3.3971 6.16532 2.61952 8.04257 2.61952 10V19.3713C2.61952 21.3287 3.3971 23.206 4.78121 24.5901C6.16532 25.9742 8.04257 26.7518 10 26.7518C11.9574 26.7518 13.8347 25.9742 15.2188 24.5901C16.6029 23.206 17.3805 21.3287 17.3805 19.3713V10ZM10 5.52718C9.65263 5.52718 9.31949 5.66517 9.07386 5.9108C8.82823 6.15642 8.69024 6.48957 8.69024 6.83694V11.814C8.69024 12.1614 8.82823 12.4945 9.07386 12.7402C9.31949 12.9858 9.65263 13.1238 10 13.1238C10.3474 13.1238 10.6805 12.9858 10.9261 12.7402C11.1718 12.4945 11.3098 12.1614 11.3098 11.814V6.83694C11.3098 6.48957 11.1718 6.15642 10.9261 5.9108C10.6805 5.66517 10.3474 5.52718 10 5.52718Z" fill="white"/>
</svg>
