<svg width="20" height="20" viewBox="0 0 20 20" fill="none" xmlns="http://www.w3.org/2000/svg">
<path d="M11.04 12.69L12.11 10.55C12.2176 10.3373 12.3976 10.1701 12.6177 10.0784C12.8377 9.98673 13.0832 9.97666 13.31 10.05L19.31 12.05C19.5105 12.1154 19.6852 12.2424 19.8091 12.4131C19.933 12.5837 19.9998 12.7891 20 13V18C20 18.5304 19.7893 19.0391 19.4142 19.4142C19.0391 19.7893 18.5304 20 18 20H16C11.7565 20 7.68687 18.3143 4.68629 15.3137C1.68571 12.3131 0 8.24347 0 4V2C0 0.900003 0.9 3.33353e-06 2 3.33353e-06H7C7.20964 -0.000537828 7.41416 0.0648223 7.58463 0.186845C7.7551 0.308868 7.88292 0.481382 7.95 0.680003L9.95 6.68C10.0261 6.90811 10.0174 7.15598 9.92554 7.3782C9.83372 7.60043 9.66489 7.78212 9.45 7.89L7.3 8.96C8.18904 10.5133 9.47673 11.801 11.03 12.69H11.04ZM6.28 2H2V4C2 7.71303 3.475 11.274 6.10051 13.8995C8.72602 16.525 12.287 18 16 18H18V13.72L13.5 12.22L12.38 14.48C12.2638 14.7089 12.064 14.8843 11.822 14.9699C11.58 15.0555 11.3143 15.0448 11.08 14.94C8.40891 13.7359 6.26855 11.5991 5.06 8.93C4.95517 8.69568 4.94446 8.43003 5.03009 8.18803C5.11571 7.94604 5.29113 7.74624 5.52 7.63L7.78 6.49L6.28 2Z" fill="#14C284"/>
</svg>
