<svg width="20" height="20" viewBox="0 0 20 20" fill="none" xmlns="http://www.w3.org/2000/svg">
<path fill-rule="evenodd" clip-rule="evenodd" d="M10.6133 14.1267C9.00667 14.212 8.255 13.8493 7.566 13.1903C6.79667 12.454 7.10567 11.6143 7.73233 11.572C8.35867 11.5293 8.73467 12.2957 9.069 12.5093C9.403 12.722 10.673 13.206 11.3443 12.4233C12.0747 11.572 10.8583 11.1317 9.96633 10.998C8.69333 10.806 7.08567 10.1037 7.21067 8.71933C7.33567 7.33633 8.363 6.627 9.444 6.527C10.822 6.39933 11.719 6.73967 12.4287 7.35733C13.249 8.07067 12.805 8.868 12.2827 8.93233C11.762 8.996 11.1773 7.759 10.029 7.74033C8.84533 7.72133 8.04567 8.99633 9.50667 9.35833C10.9683 9.72033 12.5337 9.869 13.0973 11.2313C13.6613 12.594 12.221 14.041 10.6133 14.1267ZM15.1437 10.8853C15.174 10.6587 15.1913 10.428 15.1913 10.1937C15.1913 7.37833 12.93 5.09567 10.1407 5.09567C9.86333 5.09567 9.59167 5.119 9.327 5.163C8.85267 4.84933 8.288 4.66667 7.68067 4.66667C6.01533 4.66667 4.66667 6.03567 4.66667 7.725C4.66667 8.33967 4.845 8.91067 5.152 9.39C5.11067 9.652 5.08933 9.92033 5.08933 10.1933C5.08933 13.009 7.34967 15.2913 10.1397 15.2913C10.4547 15.2913 10.7613 15.2603 11.0593 15.2057C11.5223 15.497 12.068 15.6667 12.6527 15.6667C14.3177 15.6667 15.6667 14.2977 15.6667 12.6083C15.6667 11.9697 15.4743 11.376 15.1437 10.8853ZM10 20C4.47733 20 0 15.5227 0 10C0 4.477 4.47733 0 10 0C15.5227 0 20 4.477 20 10C20 15.5227 15.5227 20 10 20Z" fill="#3E9DD7"/>
</svg>
