<svg width="24" height="24" viewBox="0 0 24 24" fill="none" xmlns="http://www.w3.org/2000/svg">
<path d="M13.248 15.228L14.532 12.66C14.6611 12.4048 14.8772 12.2041 15.1412 12.0941C15.4052 11.9841 15.6999 11.972 15.972 12.06L23.172 14.46C23.4126 14.5384 23.6222 14.6909 23.7709 14.8957C23.9196 15.1004 23.9998 15.3469 24 15.6V21.6C24 22.2365 23.7471 22.847 23.2971 23.2971C22.847 23.7471 22.2365 24 21.6 24H19.2C14.1078 24 9.22425 21.9771 5.62355 18.3764C2.02285 14.7758 0 9.89216 0 4.8V2.4C0 1.08 1.08 4.00024e-06 2.4 4.00024e-06H8.4C8.65157 -0.000645394 8.89699 0.0777867 9.10155 0.224214C9.30612 0.370642 9.4595 0.577659 9.54 0.816004L11.94 8.016C12.0313 8.28973 12.0208 8.58717 11.9107 8.85384C11.8005 9.12051 11.5979 9.33855 11.34 9.468L8.76 10.752C9.82684 12.6159 11.3721 14.1612 13.236 15.228H13.248ZM7.536 2.4H2.4V4.8C2.4 9.25564 4.17 13.5288 7.32061 16.6794C10.4712 19.83 14.7444 21.6 19.2 21.6H21.6V16.464L16.2 14.664L14.856 17.376C14.7165 17.6507 14.4768 17.8611 14.1864 17.9639C13.896 18.0667 13.5772 18.0538 13.296 17.928C10.0907 16.4831 7.52226 13.9189 6.072 10.716C5.9462 10.4348 5.93335 10.116 6.0361 9.82564C6.13886 9.53524 6.34935 9.29548 6.624 9.156L9.336 7.788L7.536 2.4Z" fill="white"/>
</svg>
