<svg width="20" height="20" viewBox="0 0 20 20" fill="none" xmlns="http://www.w3.org/2000/svg">
<path fill-rule="evenodd" clip-rule="evenodd" d="M20.0001 9.88235C20.0001 15.3402 15.5756 19.7647 10.1177 19.7647C4.65983 19.7647 0.235352 15.3402 0.235352 9.88235C0.235352 4.42448 4.65983 0 10.1177 0C15.5756 0 20.0001 4.42448 20.0001 9.88235ZM10.0772 12.598C10.1983 12.4804 10.3197 12.3625 10.4414 12.2439C10.4559 12.2541 10.4699 12.2638 10.4834 12.2732C10.5059 12.2888 10.5274 12.3036 10.5484 12.3188C10.7714 12.4836 10.9945 12.6484 11.2175 12.8133C11.6987 13.169 12.1799 13.5247 12.6614 13.8796C13.0822 14.1899 13.4412 14.0563 13.5502 13.5451C14.0087 11.3918 14.4653 9.23792 14.9214 7.08423C14.9349 7.02048 14.9492 6.95677 14.9634 6.89305C15.0102 6.68414 15.057 6.47503 15.0773 6.26333C15.1188 5.83137 14.8118 5.61395 14.4124 5.76834C13.4344 6.14588 12.4565 6.52328 11.4786 6.90068C10.3559 7.33397 9.23318 7.76725 8.11049 8.20072C7.93206 8.2695 7.75357 8.33816 7.57507 8.40681C6.92556 8.65664 6.276 8.90648 5.62914 9.16282C5.48727 9.21904 5.35068 9.30732 5.23626 9.40856C5.1124 9.51836 5.13261 9.67099 5.27074 9.76454C5.36012 9.82537 5.46443 9.86842 5.56787 9.90136C6.24009 10.115 6.91341 10.3259 7.58804 10.5319C7.67544 10.5589 7.71629 10.6008 7.74396 10.6871C7.90877 11.2019 8.07549 11.7156 8.24221 12.2293C8.36362 12.6034 8.48503 12.9776 8.6057 13.3521C8.64501 13.4735 8.71661 13.5297 8.84464 13.5365C9.03218 13.5464 9.1791 13.4753 9.30977 13.3466C9.56398 13.0967 9.81983 12.8481 10.0772 12.598ZM8.86966 12.8951C8.8663 12.896 8.86294 12.897 8.85957 12.8979L8.42013 11.5517C8.39094 11.4622 8.36202 11.3726 8.33311 11.2831C8.25308 11.0352 8.1731 10.7875 8.08743 10.5415C8.05339 10.4434 8.07008 10.3957 8.15946 10.3395C9.21924 9.67377 10.2779 9.00638 11.3367 8.33898C11.858 8.01034 12.3793 7.6817 12.9008 7.35325C12.975 7.30647 13.0539 7.25816 13.1371 7.23664C13.1788 7.22583 13.2257 7.23503 13.2727 7.24425C13.2944 7.24852 13.3161 7.25279 13.3374 7.25508C13.3278 7.27249 13.3195 7.29115 13.3111 7.3098C13.2929 7.35046 13.2747 7.39107 13.2445 7.41847C12.6217 7.9845 11.9968 8.54801 11.3717 9.11164C11.2806 9.19377 11.1896 9.2759 11.0985 9.35805C10.9331 9.5071 10.7679 9.65624 10.6027 9.80539C10.1213 10.2399 9.63986 10.6744 9.15626 11.1068C9.07435 11.1801 9.03701 11.2574 9.02823 11.3664C8.99814 11.7407 8.96303 12.1145 8.92792 12.4881C8.91717 12.6026 8.90641 12.7171 8.89581 12.8316C8.89459 12.8454 8.89118 12.8591 8.88773 12.8729C8.88619 12.8791 8.88465 12.8853 8.88329 12.8915C8.87875 12.8927 8.87421 12.8939 8.86966 12.8951Z" fill="#139BD0"/>
</svg>
